<svg width="350" height="387" viewBox="0 0 350 387" fill="none" xmlns="http://www.w3.org/2000/svg">
<path d="M172.332 99.3988L167.25 117.188L162.168 99.3988C159.498 90.0555 152.195 82.752 142.851 80.0825L125.062 75L142.851 69.9175C152.195 67.248 159.498 59.9445 162.168 50.6012L167.25 32.8125L172.332 50.6012C175.002 59.9445 182.305 67.248 191.649 69.9175L209.438 75L191.649 80.0825C182.305 82.752 175.002 90.0555 172.332 99.3988Z" stroke="#FACC15" stroke-width="10" stroke-linecap="round" stroke-linejoin="round"/>
<path d="M225.118 54.4659L223.5 60.9375L221.882 54.4659C219.993 46.9083 214.092 41.0073 206.534 39.1179L200.062 37.5L206.534 35.8821C214.092 33.9927 219.993 28.0917 221.882 20.5341L223.5 14.0625L225.118 20.5341C227.007 28.0917 232.908 33.9927 240.466 35.8821L246.938 37.5L240.466 39.1179C232.908 41.0073 227.007 46.9083 225.118 54.4659Z" stroke="#FACC15" stroke-width="10" stroke-linecap="round" stroke-linejoin="round"/>
<path d="M216.589 128.545L214.125 135.938L211.661 128.545C210.261 124.346 206.966 121.051 202.767 119.652L195.375 117.188L202.767 114.723C206.966 113.324 210.261 110.029 211.661 105.83L214.125 98.4375L216.589 105.83C217.989 110.029 221.284 113.324 225.483 114.723L232.875 117.188L225.483 119.652C221.284 121.051 217.989 124.346 216.589 128.545Z" stroke="#FACC15" stroke-width="10" stroke-linecap="round" stroke-linejoin="round"/>
<path d="M109.375 91.6875H87.5C69.3782 91.6875 54.6875 106.378 54.6875 124.5V146.375M240.625 91.6875H262.5C280.622 91.6875 295.312 106.378 295.312 124.5V146.375M295.312 277.625V299.5C295.312 317.622 280.622 332.312 262.5 332.312H240.625M109.375 332.312H87.5C69.3782 332.312 54.6875 317.622 54.6875 299.5V277.625M218.75 212C218.75 236.162 199.162 255.75 175 255.75C150.838 255.75 131.25 236.162 131.25 212C131.25 187.838 150.838 168.25 175 168.25C199.162 168.25 218.75 187.838 218.75 212Z" stroke="#FACC15" stroke-width="30" stroke-linecap="round" stroke-linejoin="round"/>
</svg>
