<svg width="512" height="512" viewBox="0 0 512 512" fill="none" xmlns="http://www.w3.org/2000/svg">
<rect x="15" y="15" width="482" height="482" rx="85" fill="black" stroke="#FACC15" stroke-width="30"/>
<path d="M253.332 162.399L248.25 180.188L243.168 162.399C240.498 153.055 233.195 145.752 223.851 143.082L206.062 138L223.851 132.918C233.195 130.248 240.498 122.945 243.168 113.601L248.25 95.8125L253.332 113.601C256.002 122.945 263.305 130.248 272.649 132.918L290.438 138L272.649 143.082C263.305 145.752 256.002 153.055 253.332 162.399Z" stroke="#FACC15" stroke-width="10" stroke-linecap="round" stroke-linejoin="round"/>
<path d="M306.118 117.466L304.5 123.938L302.882 117.466C300.993 109.908 295.092 104.007 287.534 102.118L281.062 100.5L287.534 98.8821C295.092 96.9927 300.993 91.0917 302.882 83.5341L304.5 77.0625L306.118 83.5341C308.007 91.0917 313.908 96.9927 321.466 98.8821L327.938 100.5L321.466 102.118C313.908 104.007 308.007 109.908 306.118 117.466Z" stroke="#FACC15" stroke-width="10" stroke-linecap="round" stroke-linejoin="round"/>
<path d="M297.589 191.545L295.125 198.938L292.661 191.545C291.261 187.346 287.966 184.051 283.767 182.652L276.375 180.188L283.767 177.723C287.966 176.324 291.261 173.029 292.661 168.83L295.125 161.438L297.589 168.83C298.989 173.029 302.284 176.324 306.483 177.723L313.875 180.188L306.483 182.652C302.284 184.051 298.989 187.346 297.589 191.545Z" stroke="#FACC15" stroke-width="10" stroke-linecap="round" stroke-linejoin="round"/>
<path d="M190.375 154.688H168.5C150.378 154.688 135.688 169.378 135.688 187.5V209.375M321.625 154.688H343.5C361.622 154.688 376.312 169.378 376.312 187.5V209.375M376.312 340.625V362.5C376.312 380.622 361.622 395.312 343.5 395.312H321.625M190.375 395.312H168.5C150.378 395.312 135.688 380.622 135.688 362.5V340.625M299.75 275C299.75 299.162 280.162 318.75 256 318.75C231.838 318.75 212.25 299.162 212.25 275C212.25 250.838 231.838 231.25 256 231.25C280.162 231.25 299.75 250.838 299.75 275Z" stroke="#FACC15" stroke-width="30" stroke-linecap="round" stroke-linejoin="round"/>
</svg>
